<?xml version="1.0" standalone="no"?>
<!DOCTYPE svg PUBLIC "-//W3C//DTD SVG 20010904//EN"
 "http://www.w3.org/TR/2001/REC-SVG-20010904/DTD/svg10.dtd">
<svg version="1.0" xmlns="http://www.w3.org/2000/svg"
 width="504.000000pt" height="495.000000pt" viewBox="0 0 504.000000 495.000000"
 preserveAspectRatio="xMidYMid meet">

<g transform="translate(0.000000,495.000000) scale(0.100000,-0.100000)"
fill="#000000" stroke="none">
<path d="M2733 4768 c0 -15 -3 -31 -7 -35 -9 -10 -26 18 -20 32 3 5 -2 1 -10
-10 -19 -23 -15 -41 8 -39 9 1 16 -4 16 -12 0 -8 5 -14 10 -14 6 0 10 -7 10
-15 0 -16 -12 -20 -24 -8 -11 11 -35 12 -42 2 -3 -5 6 -9 20 -9 32 0 32 -9 5
-44 -20 -26 -20 -28 -4 -46 17 -19 17 -20 -3 -20 -13 0 -22 -6 -22 -15 0 -9
-7 -18 -15 -21 -24 -9 -18 -34 8 -34 30 0 64 24 49 34 -14 8 -16 26 -3 26 12
0 23 -48 16 -71 -4 -11 -11 -17 -16 -13 -14 8 -59 -4 -59 -16 0 -6 15 -10 34
-10 29 0 46 -13 46 -36 0 -9 -37 -3 -48 8 -9 9 -12 9 -12 -1 0 -8 -7 -11 -17
-9 -10 3 -31 -1 -48 -8 -26 -11 -27 -13 -7 -14 12 0 22 -4 22 -10 0 -5 4 -10
10 -10 5 0 7 7 4 15 -5 11 -2 13 9 9 9 -3 13 -12 10 -20 -3 -8 1 -14 11 -14
10 0 13 6 10 15 -8 20 5 19 28 -2 20 -18 25 -4 6 15 -8 8 -8 12 -1 12 19 0 34
-28 28 -53 -5 -19 -2 -26 12 -30 10 -3 2 -5 -17 -4 -28 2 -34 6 -32 21 3 14
-1 17 -14 12 -9 -3 -23 -1 -30 5 -16 13 -84 3 -84 -12 0 -6 -4 -8 -9 -4 -5 3
-12 1 -16 -5 -3 -5 -15 -15 -27 -21 -14 -8 -18 -8 -14 0 5 7 1 9 -8 5 -9 -3
-14 -9 -11 -14 2 -4 -8 -13 -23 -21 -15 -8 -47 -26 -71 -41 -25 -16 -55 -28
-68 -28 -13 0 -22 -5 -21 -11 3 -12 -50 -47 -157 -104 -60 -32 -111 -38 -175
-23 -14 4 -113 12 -220 18 -107 7 -215 13 -240 15 -27 1 -54 -4 -67 -13 -13
-8 -23 -10 -23 -5 0 5 34 29 75 52 41 24 75 45 75 48 0 5 -109 -54 -252 -136
-122 -69 -165 -97 -176 -113 -7 -10 -18 -18 -24 -18 -7 0 -3 7 8 16 10 8 0 5
-23 -8 -28 -15 -38 -25 -30 -31 8 -6 3 -7 -11 -4 -12 3 -20 1 -16 -4 3 -5 -4
-9 -16 -9 -12 0 -18 -4 -15 -10 4 -6 -1 -7 -11 -3 -12 4 -15 3 -10 -5 4 -8 2
-10 -7 -6 -8 3 -17 -2 -21 -11 -3 -9 -10 -14 -15 -11 -5 4 -16 -1 -25 -9 -8
-9 -18 -16 -21 -15 -20 1 -25 -1 -21 -9 3 -5 -1 -12 -10 -15 -8 -3 -12 -2 -9
4 3 5 -8 2 -24 -8 -17 -9 -31 -20 -31 -24 0 -5 -7 -8 -15 -8 -8 0 -15 -5 -15
-11 0 -5 -4 -8 -10 -4 -5 3 -18 -3 -29 -14 -11 -11 -22 -17 -25 -14 -3 4 -6 0
-6 -7 0 -7 -3 -11 -6 -7 -8 7 -56 -16 -78 -38 -14 -14 -16 -46 -16 -211 0
-219 -3 -212 78 -169 65 35 82 33 82 -8 0 -46 15 -57 82 -57 32 0 58 -3 58 -7
-1 -11 -30 -48 -30 -38 0 5 -9 -1 -20 -13 -22 -23 -36 -29 -24 -11 4 7 -7 4
-24 -6 -17 -10 -29 -22 -26 -27 3 -4 -3 -5 -12 -1 -11 4 -15 2 -11 -4 4 -6 0
-14 -9 -17 -9 -3 -12 -2 -8 5 3 6 -3 5 -14 -2 -12 -7 -18 -17 -15 -23 4 -5 1
-6 -6 -2 -7 5 -19 0 -27 -10 -9 -11 -12 -13 -9 -5 8 14 -45 -16 -57 -34 -4 -5
-8 -92 -8 -192 0 -203 -2 -198 66 -166 40 20 39 20 76 -46 14 -26 23 -31 55
-31 49 0 65 -10 50 -30 -7 -8 -19 -16 -27 -18 -8 -2 -19 -9 -25 -16 -10 -13
-16 -16 -36 -16 -5 0 -7 -5 -3 -12 4 -7 3 -8 -5 -4 -11 7 -44 -17 -35 -27 3
-2 -2 -7 -10 -10 -11 -4 -13 -1 -9 10 5 13 1 12 -23 -3 -16 -10 -33 -24 -37
-31 -4 -7 -15 -13 -22 -13 -13 0 -15 -36 -15 -230 0 -161 3 -230 11 -230 6 0
57 25 114 55 56 30 107 55 114 55 6 0 11 -13 11 -28 0 -16 9 -38 21 -50 17
-19 27 -22 68 -16 46 6 75 -6 51 -21 -6 -4 -8 -10 -5 -15 3 -5 0 -12 -6 -16
-8 -4 -9 -3 -5 4 13 22 -11 12 -28 -11 -9 -12 -14 -16 -11 -9 6 12 -64 -22
-75 -37 -3 -3 -10 -7 -15 -8 -23 -3 -94 -50 -88 -57 4 -4 0 -4 -8 -1 -9 3 -26
-4 -41 -18 -13 -13 -31 -21 -38 -19 -7 3 -10 0 -6 -7 4 -6 2 -9 -7 -6 -7 3
-23 -3 -35 -13 -21 -18 -22 -28 -22 -150 l0 -131 33 -22 c17 -13 64 -47 103
-76 40 -29 77 -53 83 -53 6 0 58 25 114 56 56 31 127 70 158 86 l55 29 -4 90
c-4 76 -2 93 13 109 16 18 17 20 2 20 -15 0 -17 14 -17 105 0 63 4 105 10 105
6 0 10 8 10 18 0 14 -2 14 -9 3 -7 -10 -11 -1 -16 32 -8 53 0 69 51 95 18 9
73 38 123 64 98 50 123 57 42 11 -42 -23 -48 -30 -40 -45 6 -10 8 -22 5 -27
-11 -17 36 -19 176 -6 132 12 288 48 288 66 0 15 -28 26 -95 38 -110 20 -110
20 -88 37 16 13 16 13 1 8 -25 -8 -23 13 2 26 11 6 20 15 20 20 0 14 -32 12
-55 -4 -11 -7 -31 -17 -45 -21 -15 -4 -4 7 27 28 28 19 55 36 60 38 12 5 277
155 336 191 26 15 51 28 56 28 4 0 19 8 32 18 13 11 69 43 124 72 55 29 133
72 173 97 40 24 101 59 135 77 l62 34 0 -276 0 -276 -50 -29 c-27 -17 -77 -44
-110 -62 -33 -18 -96 -53 -140 -79 -44 -25 -84 -46 -88 -46 -5 0 -21 -9 -35
-19 -15 -10 -55 -34 -90 -52 -35 -19 -87 -47 -117 -64 -29 -16 -109 -60 -177
-98 -67 -37 -148 -81 -178 -99 -121 -69 -199 -112 -283 -156 -56 -29 -83 -48
-75 -53 9 -6 9 -13 0 -34 -7 -14 -12 -42 -12 -61 0 -28 5 -36 28 -45 15 -6 35
-15 45 -20 17 -9 52 7 202 94 33 20 87 50 120 67 33 17 69 36 80 43 16 10 152
86 266 148 13 8 40 23 59 35 33 20 146 83 325 182 139 76 225 122 230 122 3 0
5 -98 5 -218 l0 -219 -47 -26 c-27 -14 -77 -41 -113 -59 -36 -18 -67 -36 -68
-41 -2 -4 -20 -16 -40 -26 -41 -20 -259 -137 -282 -152 -8 -5 -46 -25 -85 -45
-38 -20 -72 -40 -73 -45 -2 -5 -8 -7 -12 -4 -5 3 -12 1 -15 -5 -4 -6 -1 -9 7
-8 10 2 12 -9 10 -45 -4 -69 6 -77 86 -71 62 5 66 4 48 -10 -32 -26 -3 -18 34
9 19 14 38 25 43 25 5 0 32 16 61 35 29 19 72 44 97 55 24 11 71 38 104 58 68
42 230 132 239 132 8 0 8 -190 -1 -313 -6 -91 -7 -98 -32 -110 -14 -8 -42 -23
-63 -35 -20 -11 -39 -18 -42 -15 -3 4 -6 2 -6 -3 0 -6 -29 -26 -65 -44 -36
-19 -64 -38 -62 -44 4 -12 135 -104 160 -112 10 -3 48 12 93 36 41 23 77 40
80 37 5 -5 -74 -55 -108 -69 -29 -12 -21 -29 10 -21 15 4 79 7 142 8 368 2
400 4 400 22 0 15 1 15 13 -2 11 -14 20 -16 43 -10 16 5 36 9 44 9 8 1 16 7
16 14 1 6 2 20 3 30 1 15 3 15 14 1 7 -9 19 -14 27 -12 10 3 9 0 -3 -7 -9 -6
-22 -8 -29 -4 -7 5 -8 3 -4 -5 5 -7 0 -18 -10 -26 -11 -7 -16 -16 -13 -19 3
-3 15 3 27 14 12 12 22 18 22 15 0 -3 18 4 40 15 22 11 40 25 40 31 0 6 4 8 9
4 5 -3 12 -1 16 5 3 5 -3 10 -14 10 -11 0 -25 -9 -31 -20 -6 -12 -16 -18 -23
-13 -8 5 -8 8 1 11 21 7 13 24 -10 22 -49 -4 -48 -8 -48 148 0 82 -3 152 -6
155 -4 3 -15 -5 -26 -18 -11 -14 -24 -23 -29 -20 -16 10 -33 -6 -18 -17 11 -7
11 -9 -1 -7 -32 3 -49 -2 -84 -26 -20 -14 -43 -25 -50 -25 -7 0 -22 -10 -35
-21 -13 -12 -26 -18 -31 -13 -9 9 21 27 165 103 28 15 69 39 93 54 23 15 73
44 110 63 37 20 87 48 112 63 25 14 59 34 75 43 17 9 84 46 150 83 66 36 194
107 285 158 l165 92 3 103 c2 74 -1 102 -9 102 -11 0 -94 -43 -199 -103 -19
-11 -93 -53 -165 -93 -71 -39 -155 -86 -185 -103 -51 -29 -92 -50 -130 -66 -8
-3 -33 -17 -55 -30 -93 -57 -128 -66 -165 -44 -10 6 -5 7 14 3 20 -5 27 -4 22
4 -5 8 -1 10 11 5 16 -6 17 -5 3 11 -9 12 -15 43 -16 85 -1 49 -4 65 -14 63
-11 -3 -11 0 -1 12 13 16 18 129 7 164 -6 17 1 26 35 48 24 15 56 33 73 41 17
7 54 28 81 45 28 17 79 48 115 68 36 20 85 48 110 62 92 52 228 126 325 178
55 29 106 57 113 63 12 10 18 188 6 200 -6 5 -198 -89 -339 -166 -116 -64
-190 -105 -238 -131 -27 -14 -53 -23 -59 -20 -7 4 -8 2 -4 -5 5 -7 -6 -17 -31
-27 -21 -9 -39 -16 -40 -15 -2 0 -13 -10 -26 -23 -14 -13 -44 -34 -67 -46 -46
-23 -61 -17 -59 25 6 94 -3 365 -11 360 -5 -3 -11 -25 -11 -48 -1 -27 -3 -33
-6 -17 -7 38 -24 50 -20 13 4 -26 1 -30 -15 -25 -17 4 -17 5 -2 17 16 11 16
12 0 18 -10 4 -16 1 -16 -9 0 -10 -6 -13 -17 -10 -22 7 -50 -8 -34 -18 6 -4
11 -3 11 3 0 7 10 6 30 -1 l30 -10 -27 -21 c-18 -15 -28 -17 -31 -9 -5 15 -92
17 -92 2 0 -5 -7 -10 -16 -10 -9 0 -12 -5 -8 -12 5 -8 2 -9 -11 -4 -10 4 -21
2 -25 -5 -5 -7 -10 -8 -14 -1 -5 9 67 54 224 138 22 12 61 35 87 52 27 16 122
69 212 118 90 49 180 98 200 110 30 17 145 81 396 219 22 12 99 55 170 95 72
40 144 80 160 88 77 39 75 40 -124 38 -104 0 -192 1 -195 4 -2 3 -8 63 -12
133 l-7 128 -36 30 c-54 44 -61 51 -113 92 -53 41 -55 55 -19 106 33 45 42 94
25 127 -19 36 -19 36 26 70 22 16 40 33 40 37 0 4 -13 -2 -29 -14 -18 -13 -34
-18 -43 -14 -7 5 -10 4 -5 0 8 -10 -75 -65 -98 -65 -8 0 -15 -4 -15 -9 0 -5
-12 -14 -27 -20 -30 -13 -81 -40 -155 -84 -27 -17 -53 -25 -60 -21 -7 4 -10 4
-6 -1 12 -13 -38 -46 -59 -38 -10 3 -15 3 -11 -2 4 -4 -17 -23 -48 -41 -66
-40 -90 -48 -99 -34 -3 5 -12 10 -18 10 -7 0 -4 -5 6 -11 20 -12 14 -31 -8
-23 -8 4 -17 -1 -21 -9 -3 -8 -23 -22 -45 -32 -21 -10 -39 -22 -39 -27 0 -5
-9 -4 -19 2 -28 15 -35 12 -20 -7 10 -12 10 -14 1 -9 -7 4 -15 1 -18 -8 -5
-12 -22 -16 -75 -16 -42 0 -69 4 -69 11 0 6 9 8 23 4 21 -6 21 -6 3 9 -11 9
-29 16 -40 17 -18 1 -18 2 4 9 17 5 19 8 8 9 -10 1 -18 6 -18 12 0 7 10 9 25
7 29 -6 32 3 8 25 -15 13 -21 13 -36 2 -10 -7 -27 -10 -38 -8 -16 5 -18 8 -7
15 10 7 10 11 -4 22 -10 7 -18 21 -18 31 0 12 -6 16 -20 12 -11 -3 -20 -1 -20
3 0 5 -17 11 -37 13 -35 4 -34 4 5 3 35 -1 42 2 39 15 -3 12 1 15 14 12 11 -3
19 -13 19 -22 0 -9 9 -22 20 -29 16 -10 20 -10 20 1 0 7 -5 18 -12 25 -9 9 -7
13 5 18 9 3 17 16 16 28 0 11 -3 15 -6 9 -2 -7 -11 -13 -19 -13 -16 0 -55 20
-67 35 -5 6 -5 -1 -1 -15 6 -22 5 -23 -9 -11 -9 7 -14 17 -11 22 3 5 -3 6 -12
2 -11 -4 -13 -8 -6 -11 25 -8 10 -21 -18 -15 -20 4 -30 2 -30 -7 0 -7 -6 -10
-14 -7 -8 3 -18 -5 -25 -19 -6 -13 -18 -24 -26 -24 -9 0 -13 5 -10 11 4 6 -2
5 -14 -2 -11 -8 -17 -16 -13 -19 10 -7 9 -26 -2 -37 -5 -4 -7 -3 -3 2 3 6 2
17 -2 23 -6 10 -13 10 -34 1 -15 -7 -24 -16 -21 -20 3 -5 -1 -6 -9 -3 -8 3
-17 -1 -20 -9 -3 -9 -19 -18 -36 -22 -17 -4 -33 -11 -36 -16 -4 -5 -15 -9 -26
-9 -13 0 -18 -4 -13 -12 4 -7 4 -10 -1 -6 -4 4 -21 -2 -37 -13 -16 -12 -32
-18 -35 -15 -4 3 -4 8 -2 10 4 4 112 64 244 135 28 15 101 56 163 90 106 60
141 71 113 37 -7 -8 -18 -13 -26 -10 -7 3 -16 0 -20 -7 -8 -12 -4 -11 70 6 11
3 35 8 52 11 18 3 30 10 27 15 -3 5 -17 7 -32 3 -26 -5 -27 -5 -7 12 18 15 18
16 2 10 -10 -3 -23 -6 -29 -6 -6 0 -8 -7 -5 -15 4 -8 1 -17 -5 -21 -6 -4 -8
-3 -4 4 3 6 2 13 -4 17 -19 12 -10 20 53 53 34 18 82 46 107 62 43 27 142 85
203 117 28 15 34 28 17 38 -6 4 -7 11 -4 17 5 7 2 8 -6 3 -7 -4 -16 -2 -20 5
-4 7 -37 25 -73 40 -57 24 -67 25 -88 14 -32 -18 -78 -17 -85 0 -3 8 -13 12
-22 9 -11 -3 -13 -2 -5 4 7 5 13 43 15 93 2 70 0 85 -12 85 -9 0 -14 -7 -12
-18 2 -9 -2 -25 -7 -35 -9 -14 -10 -13 -11 10 0 15 -5 30 -11 33 -5 4 -15 19
-21 33 -6 16 -12 22 -15 15 -3 -7 -9 -13 -14 -13 -12 0 -12 87 1 95 6 3 10 1
10 -5 0 -6 5 -8 10 -5 6 3 10 15 10 26 0 10 -4 19 -10 19 -5 0 -11 10 -11 23
-1 20 -2 20 -6 2 -14 -58 -19 -15 -20 175 l-1 210 -32 29 c-18 16 -42 31 -55
33 -18 4 -22 0 -22 -24z m2 -208 c3 -5 1 -10 -4 -10 -6 0 -11 5 -11 10 0 6 2
10 4 10 3 0 8 -4 11 -10z m29 -375 c-19 -15 -19 -15 1 -9 15 4 13 1 -5 -9 -14
-9 -29 -13 -35 -9 -5 3 -4 -1 2 -9 7 -9 14 -46 16 -83 2 -41 9 -71 16 -76 9
-5 10 -10 3 -14 -6 -3 -13 -2 -17 4 -8 13 -162 13 -170 0 -4 -6 -12 -4 -21 5
-14 14 -44 20 -69 15 -5 -1 -18 -3 -27 -5 -26 -5 -58 -25 -58 -35 0 -5 -6 -7
-14 -4 -7 3 -21 -2 -30 -11 -9 -9 -20 -13 -26 -10 -5 3 -10 1 -10 -4 0 -6 -6
-11 -14 -11 -7 0 -19 -7 -26 -15 -7 -9 -19 -14 -26 -11 -7 3 -16 1 -19 -3 -3
-5 -31 -24 -63 -42 -59 -35 -85 -49 -197 -108 -35 -19 -63 -37 -60 -40 2 -4
-12 -11 -31 -17 -56 -18 -39 -2 48 46 45 25 112 61 148 81 36 19 95 54 132 76
36 23 90 53 120 67 29 14 80 43 113 63 69 41 123 72 215 121 36 19 72 40 80
48 8 8 21 14 29 14 11 0 10 -4 -5 -15z m106 -95 c0 -5 -4 -10 -10 -10 -5 0
-10 5 -10 10 0 6 5 10 10 10 6 0 10 -4 10 -10z m-1460 -25 c0 -2 -10 -9 -22
-15 -22 -11 -22 -10 -4 4 21 17 26 19 26 11z m1518 -2 c-19 -5 -33 -37 -23
-53 3 -6 -1 -17 -9 -26 -20 -20 -20 -34 -1 -34 8 0 15 5 15 10 0 6 7 10 15 10
8 0 15 -4 15 -10 0 -5 -6 -10 -14 -10 -8 0 -16 -6 -19 -12 -3 -9 -10 -8 -26 6
-19 17 -20 21 -6 36 8 9 15 33 15 53 0 34 2 37 28 36 16 -1 20 -3 10 -6z
m-1561 -39 c-3 -3 -12 -4 -19 -1 -8 3 -5 6 6 6 11 1 17 -2 13 -5z m-66 -25
c-18 -11 -35 -18 -38 -15 -5 5 46 35 62 36 6 0 -5 -9 -24 -21z m-47 -27 c2 -4
-5 -9 -17 -9 -17 -2 -19 0 -7 7 18 12 18 12 24 2z m1486 -48 c0 -8 -4 -14 -10
-14 -5 0 -10 9 -10 21 0 11 5 17 10 14 6 -3 10 -13 10 -21z m200 1 c-7 -9 -15
-13 -17 -11 -7 7 7 26 19 26 6 0 6 -6 -2 -15z m-104 -9 c3 -8 12 -12 20 -9 20
8 18 -22 -3 -38 -17 -13 -17 -13 -3 5 14 18 13 19 -8 14 -19 -5 -22 -3 -17 13
5 14 3 17 -9 13 -9 -3 -16 -1 -16 5 0 16 30 13 36 -3z m71 -13 c2 -6 -2 -13
-10 -16 -8 -3 -13 3 -14 15 -2 20 18 21 24 1z m-247 3 c0 -3 -4 -8 -10 -11 -5
-3 -10 -1 -10 4 0 6 5 11 10 11 6 0 10 -2 10 -4z m-8 -98 c-7 -7 -12 -8 -12
-2 0 6 3 14 7 17 3 4 9 5 12 2 2 -3 -1 -11 -7 -17z m48 12 c0 -5 -5 -10 -11
-10 -5 0 -7 5 -4 10 3 6 8 10 11 10 2 0 4 -4 4 -10z m20 -15 c-7 -8 -24 -14
-39 -14 l-26 2 25 4 c14 3 29 9 35 14 15 15 19 10 5 -6z m-153 -27 c-3 -8 -6
-5 -6 6 -1 11 2 17 5 13 3 -3 4 -12 1 -19z m-97 -33 c-7 -8 -17 -12 -22 -9 -6
4 -5 10 3 15 22 14 33 10 19 -6z m58 -17 c-16 -5 -28 -14 -28 -19 0 -6 -5 -7
-11 -3 -13 8 27 34 51 33 8 0 3 -5 -12 -11z m-688 -58 c0 -5 -15 -16 -34 -24
-18 -8 -37 -19 -40 -25 -4 -6 -13 -11 -21 -11 -8 0 -44 -19 -80 -41 -36 -23
-68 -39 -71 -36 -4 4 130 87 142 87 2 0 25 14 51 30 53 34 53 34 53 20z m-270
-155 c-7 -8 -18 -15 -24 -15 -6 0 -2 7 8 15 25 19 32 19 16 0z m1175 -3 c-3
-3 -11 0 -18 7 -9 10 -8 11 6 5 10 -3 15 -9 12 -12z m-1225 -21 c0 -5 -7 -12
-16 -15 -14 -5 -15 -4 -4 9 14 17 20 19 20 6z m-68 -41 c-42 -26 -56 -26 -17
0 17 11 35 20 40 20 6 0 -5 -9 -23 -20z m1118 -20 c-6 -11 -13 -20 -16 -20 -2
0 0 9 6 20 6 11 13 20 16 20 2 0 0 -9 -6 -20z m1207 -46 c138 -94 145 -107
151 -271 4 -110 3 -123 -12 -123 -9 0 -28 -7 -41 -16 -20 -13 -25 -14 -25 -3
-1 10 -4 8 -11 -3 -5 -10 -16 -18 -24 -18 -7 0 -15 -5 -17 -10 -2 -6 -14 -12
-26 -15 -18 -3 -22 0 -18 10 3 9 0 12 -10 8 -19 -7 -18 -20 4 -32 14 -8 9 -11
-25 -17 -24 -3 -40 -10 -38 -15 7 -11 -31 -21 -54 -14 -11 3 -22 1 -26 -4 -4
-7 1 -9 12 -5 10 3 7 -1 -7 -10 -21 -12 -26 -12 -28 -1 -2 8 6 23 17 34 12 12
21 24 21 29 0 11 -20 38 -20 27 0 -5 -5 -3 -10 5 -8 12 -13 13 -29 3 -13 -8
-22 -9 -26 -3 -3 6 1 10 10 10 13 0 16 9 13 43 -3 39 -5 42 -30 39 -25 -2 -28
0 -28 28 0 16 -4 30 -10 30 -5 0 -10 -11 -10 -24 0 -26 -21 -48 -28 -28 -2 6
-10 8 -18 5 -8 -3 -14 1 -14 11 0 9 5 16 10 16 15 0 12 19 -4 36 -17 16 -66
19 -66 4 0 -5 -7 -10 -16 -10 -14 0 -14 2 0 15 17 17 111 22 101 5 -4 -6 10
-10 33 -10 33 0 41 -4 46 -22 6 -22 7 -22 20 -5 13 16 14 16 20 1 4 -9 4 -25
1 -35 -4 -13 -1 -19 9 -19 11 0 16 10 16 33 0 32 0 32 45 29 42 -4 61 9 33 22
-7 3 42 2 110 -1 l122 -6 0 31 c0 21 -6 32 -17 36 -10 2 -121 10 -248 16 -126
6 -241 13 -255 14 -14 2 -37 -1 -52 -5 -41 -11 -34 -3 20 26 26 14 74 41 107
60 33 19 83 46 110 60 28 14 68 39 90 55 22 15 43 29 47 29 4 1 37 -20 75 -45z
m-2392 26 c-3 -5 -14 -10 -23 -9 -14 0 -13 2 3 9 27 11 27 11 20 0z m1468 -57
c-7 -2 -19 -2 -25 0 -7 3 -2 5 12 5 14 0 19 -2 13 -5z m-568 -43 c-8 -13 -66
-43 -71 -37 -3 3 12 14 33 25 45 25 46 25 38 12z m568 3 c-7 -2 -19 -2 -25 0
-7 3 -2 5 12 5 14 0 19 -2 13 -5z m57 -3 c12 -8 11 -10 -7 -10 -13 0 -23 5
-23 10 0 13 11 13 30 0z m-1800 -45 c-7 -8 -17 -15 -23 -15 -6 0 -2 7 9 15 25
19 30 19 14 0z m1865 -14 c3 -5 2 -12 -3 -15 -5 -3 -9 1 -9 9 0 17 3 19 12 6z
m-34 -14 c-1 -4 -3 -7 -6 -7 -40 0 -40 0 -25 10 16 10 32 9 31 -3z m-1915 -22
c-11 -8 -25 -15 -30 -15 -6 1 0 7 14 15 32 19 40 18 16 0z m1070 -10 c-11 -8
-25 -15 -30 -15 -6 1 0 7 14 15 32 19 40 18 16 0z m-61 -31 c-41 -31 -176
-106 -182 -101 -3 3 10 13 28 21 19 9 63 33 99 55 68 41 89 51 55 25z m-1095
-3 c0 -5 -7 -12 -16 -15 -14 -5 -15 -4 -4 9 14 17 20 19 20 6z m2340 5 c0 -2
-7 -7 -16 -10 -8 -3 -12 -2 -9 4 6 10 25 14 25 6z m-40 -26 c0 -6 -11 -15 -25
-22 -13 -6 -22 -15 -19 -19 3 -5 -4 -9 -14 -9 -22 0 -98 -37 -120 -57 -11 -11
-10 -13 5 -14 11 0 13 -3 5 -6 -7 -3 -19 0 -26 7 -9 7 -16 7 -20 1 -3 -5 0
-12 6 -14 7 -3 2 -6 -11 -6 -24 -1 -24 -1 -5 -16 18 -14 17 -15 -8 -4 -33 14
-95 -5 -79 -25 6 -8 -2 -12 -27 -13 -35 -2 -36 -2 -17 13 11 9 40 26 65 39 25
12 80 42 123 66 77 43 160 87 165 88 1 1 2 -4 2 -9z m80 -28 c0 -4 -18 -7 -39
-7 -22 0 -34 3 -28 7 16 10 67 10 67 0z m90 -42 c0 -5 -7 -10 -15 -10 -8 0
-15 5 -15 10 0 6 7 10 15 10 8 0 15 -4 15 -10z m-1575 -19 c-6 -11 -67 -43
-72 -38 -1 2 14 13 35 24 44 25 45 25 37 14z m1365 -1 c0 -5 -8 -10 -17 -10
-15 0 -16 2 -3 10 19 12 20 12 20 0z m150 -10 c0 -5 -4 -10 -10 -10 -5 0 -10
5 -10 10 0 6 5 10 10 10 6 0 10 -4 10 -10z m-80 -16 c0 -2 -9 -4 -21 -4 -11 0
-18 4 -14 10 5 8 35 3 35 -6z m133 -1 c-7 -2 -19 -2 -25 0 -7 3 -2 5 12 5 14
0 19 -2 13 -5z m-1693 -43 c-35 -24 -54 -31 -30 -11 14 11 30 21 35 21 6 0 3
-5 -5 -10z m1610 0 c0 -5 -4 -10 -10 -10 -5 0 -10 5 -10 10 0 6 5 10 10 10 6
0 10 -4 10 -10z m150 -6 c0 -2 -7 -4 -15 -4 -8 0 -15 4 -15 10 0 5 7 7 15 4 8
-4 15 -8 15 -10z m50 -20 c0 -17 -22 -14 -28 4 -2 7 3 12 12 12 9 0 16 -7 16
-16z m-492 -1 c-10 -2 -26 -2 -35 0 -10 3 -2 5 17 5 19 0 27 -2 18 -5z m-2200
-121 c2 -72 -1 -112 -8 -112 -5 0 -10 8 -11 18 -9 174 -9 214 3 210 9 -3 14
-37 16 -116z m2621 109 c7 -5 9 -11 5 -14 -5 -3 -15 1 -22 9 -14 16 -5 18 17
5z m-1819 -6 c0 -2 -10 -9 -22 -15 -22 -11 -22 -10 -4 4 21 17 26 19 26 11z
m1730 -5 c0 -5 -5 -10 -11 -10 -5 0 -7 5 -4 10 3 6 8 10 11 10 2 0 4 -4 4 -10z
m-340 -10 c0 -5 -9 -10 -20 -10 -11 0 -20 5 -20 10 0 6 9 10 20 10 11 0 20 -4
20 -10z m-215 -20 c-10 -11 -24 -20 -32 -20 -8 0 -11 -5 -7 -12 4 -7 3 -8 -4
-4 -13 8 -82 -25 -101 -48 -8 -9 -20 -16 -28 -16 -8 0 -26 -9 -40 -20 -15 -11
-28 -18 -31 -16 -9 9 10 26 51 46 65 32 171 90 182 101 18 18 28 9 10 -11z
m131 -47 c6 -49 5 -53 -17 -62 -18 -7 -19 -10 -6 -10 11 -1 17 -9 17 -23 0
-13 3 -48 6 -78 l6 -55 -20 24 c-11 14 -17 31 -14 40 3 9 1 12 -6 7 -20 -12
-14 -71 8 -91 24 -22 27 -50 4 -41 -9 3 -20 6 -25 6 -5 0 -9 52 -9 115 0 63 4
115 9 115 5 0 12 27 16 61 8 70 21 67 31 -8z m506 37 c2 6 14 0 27 -14 l24
-26 -37 2 c-38 1 -62 19 -51 38 5 8 10 8 20 0 9 -8 14 -8 17 0z m118 2 c0 -13
-12 -22 -22 -16 -10 6 -1 24 13 24 5 0 9 -4 9 -8z m37 -14 c-3 -8 -6 -5 -6 6
-1 11 2 17 5 13 3 -3 4 -12 1 -19z m-557 3 c0 -5 -20 -11 -45 -13 -43 -3 -53
1 -38 15 10 10 83 8 83 -2z m-1410 -15 c57 -5 60 -6 60 -15 0 -5 -6 -16 -12
-23 -40 -42 -86 -107 -96 -136 l-12 -34 54 4 c43 2 57 -1 65 -14 6 -10 18 -18
25 -18 20 0 31 21 16 30 -19 12 2 19 54 18 49 -1 54 -7 36 -52 -6 -17 -14 -24
-25 -20 -10 4 -14 2 -10 -7 8 -22 -7 -36 -75 -73 -132 -72 -144 -79 -157 -91
-17 -18 -102 -50 -110 -42 -3 4 -8 26 -10 49 -4 44 -19 83 -40 106 -19 19 -16
33 7 39 14 4 17 9 11 21 -5 8 -7 22 -4 31 2 9 -2 34 -10 56 l-14 40 -13 -55
c-7 -30 -17 -60 -22 -67 -7 -8 -5 -18 6 -28 14 -14 14 -19 -1 -50 -9 -19 -26
-36 -38 -39 -19 -5 -26 -19 -40 -81 -9 -41 -22 -75 -28 -75 -7 0 -22 -11 -35
-25 -13 -13 -30 -21 -38 -18 -10 3 -14 -2 -15 -18 -1 -23 -1 -22 -9 3 -4 15
-9 103 -9 195 -1 91 -3 168 -5 171 -2 2 -14 -1 -25 -8 -12 -6 -21 -9 -21 -6 0
3 39 28 88 56 93 55 97 57 182 103 30 16 62 36 70 42 30 26 85 43 125 38 22
-3 56 -6 75 -7z m1898 -21 c-9 -9 -30 14 -23 25 6 9 10 8 17 -4 6 -10 8 -19 6
-21z m-508 -5 c-8 -14 -8 -26 0 -40 9 -17 8 -20 -10 -20 -11 0 -20 -4 -20 -10
0 -5 -7 -10 -15 -10 -8 0 -15 2 -15 4 0 2 -3 13 -6 23 -4 14 -4 15 4 4 16 -22
36 23 22 49 -10 18 -8 20 20 20 28 0 30 -2 20 -20z m27 -2 c-3 -8 -6 -5 -6 6
-1 11 2 17 5 13 3 -3 4 -12 1 -19z m-799 -7 c4 -1 -15 -13 -43 -26 -46 -22
-51 -23 -62 -8 -17 22 -16 31 4 35 16 3 86 2 101 -1z m1189 3 c-3 -3 -12 -4
-19 -1 -8 3 -5 6 6 6 11 1 17 -2 13 -5z m53 -4 c12 -8 11 -10 -7 -10 -13 0
-23 5 -23 10 0 13 11 13 30 0z m-360 -21 c-10 -6 -12 -11 -4 -16 7 -5 9 -28 6
-58 -2 -27 -4 -67 -5 -87 -1 -33 -4 -38 -24 -38 -35 0 -28 -26 10 -36 l32 -8
-32 -3 c-29 -4 -37 -12 -35 -34 1 -3 -10 -4 -24 -1 -19 3 -22 7 -13 18 6 8 18
14 25 14 8 0 14 5 14 10 0 9 -20 14 -47 11 -6 -1 -27 8 -45 19 l-33 21 47 -7
c57 -8 98 1 98 21 0 8 -15 18 -32 23 l-33 8 24 13 c12 7 32 11 42 8 28 -7 24
4 -17 49 -29 31 -33 40 -19 42 9 2 25 -4 36 -14 17 -15 19 -15 19 -1 0 8 -8
17 -17 19 -16 3 -15 6 5 26 13 13 27 21 30 17 4 -3 0 -10 -8 -16z m254 -5
c176 -6 179 -7 155 -25 -13 -10 -50 -31 -81 -46 -32 -15 -58 -31 -58 -35 0 -5
-6 -8 -13 -8 -7 0 -37 -16 -67 -36 -69 -45 -150 -87 -157 -80 -10 9 -9 221 0
234 6 7 17 10 26 8 9 -3 97 -8 195 -12z m-344 -56 c0 -6 7 -20 17 -30 15 -17
14 -18 -25 -18 -40 0 -42 1 -42 30 0 25 4 30 25 30 14 0 25 -5 25 -12z m110
-164 c0 -2 -7 -4 -15 -4 -8 0 -15 4 -15 10 0 5 7 7 15 4 8 -4 15 -8 15 -10z
m-2190 -24 c0 -5 -5 -10 -11 -10 -5 0 -7 5 -4 10 3 6 8 10 11 10 2 0 4 -4 4
-10z m1969 -37 c0 -10 -4 -27 -9 -38 -8 -18 -9 -18 -9 -2 -1 10 -5 16 -10 13
-5 -4 -4 5 2 19 14 29 27 33 26 8z m91 7 c0 -5 8 -10 18 -11 12 0 13 -2 3 -6
-7 -3 -22 -14 -32 -24 -11 -11 -25 -19 -31 -18 -7 0 -3 7 10 16 23 16 29 33
11 33 -5 0 -7 -4 -4 -10 3 -5 -1 -10 -9 -10 -16 0 -22 21 -9 33 10 11 43 8 43
-3z m-106 -88 c2 -4 -4 -8 -14 -8 -10 0 -16 4 -14 8 3 4 9 8 14 8 5 0 11 -4
14 -8z m-1574 -18 c0 -14 -3 -14 -15 -4 -8 7 -15 14 -15 16 0 2 7 4 15 4 8 0
15 -7 15 -16z m1800 -283 c0 -44 -3 -82 -7 -84 -5 -3 -8 33 -8 79 0 46 3 84 7
84 5 0 8 -36 8 -79z m-120 39 c0 -5 -4 -10 -9 -10 -6 0 -13 5 -16 10 -3 6 1
10 9 10 9 0 16 -4 16 -10z m-1540 -14 c0 -3 -4 -8 -10 -11 -5 -3 -10 -1 -10 4
0 6 5 11 10 11 6 0 10 -2 10 -4z m-30 -20 c0 -2 -7 -7 -16 -10 -8 -3 -12 -2
-9 4 6 10 25 14 25 6z m1363 -16 c-10 -11 -23 -20 -31 -20 -7 0 -11 -4 -8 -9
4 -5 -3 -7 -14 -4 -12 3 -22 -1 -26 -10 -3 -8 -16 -18 -30 -21 -13 -4 -24 -11
-24 -16 0 -6 -8 -10 -17 -10 -17 0 -29 -6 -82 -38 -11 -7 -21 -9 -21 -5 0 9
35 30 140 86 41 22 84 46 95 53 28 20 37 17 18 -6z m224 14 c-3 -3 -12 -4 -19
-1 -8 3 -5 6 6 6 11 1 17 -2 13 -5z m83 -11 c0 -14 -2 -15 -9 -4 -12 19 -31 4
-31 -25 0 -13 -4 -24 -10 -24 -18 0 -11 58 8 63 33 9 42 7 42 -10z m-80 -89
c0 -8 -5 -12 -10 -9 -6 4 -8 11 -5 16 9 14 15 11 15 -7z m54 -51 c-10 -47 -14
-54 -24 -48 -14 9 -13 48 2 63 20 20 29 14 22 -15z m46 -68 c-7 -9 -15 -13
-19 -10 -3 3 1 10 9 15 21 14 24 12 10 -5z m-57 -44 c3 -13 0 -18 -7 -15 -7 3
-13 11 -13 19 0 22 14 18 20 -4z m-33 4 c0 -2 -9 -9 -20 -15 -12 -6 -20 -7
-20 -1 0 5 8 12 18 14 9 3 18 5 20 6 1 0 2 -1 2 -4z m95 -234 c-3 -6 -13 -11
-21 -11 -8 0 -13 -5 -11 -11 1 -6 -5 -14 -13 -16 -13 -4 -13 -3 0 7 10 8 11
10 2 8 -8 -2 -13 -7 -12 -12 1 -5 -4 -13 -12 -17 -10 -7 -10 -9 2 -9 11 0 11
-3 2 -12 -10 -10 -14 -10 -20 -1 -9 15 -48 9 -71 -10 -21 -16 -96 -57 -107
-57 -12 0 7 16 46 38 19 10 75 42 124 70 85 49 106 57 91 33z m-1 -37 c3 -8 2
-12 -4 -9 -6 3 -10 10 -10 16 0 14 7 11 14 -7z m-17 -86 c-3 -8 -6 -5 -6 6 -1
11 2 17 5 13 3 -3 4 -12 1 -19z m-292 -47 c-3 -6 -11 -11 -17 -11 -6 0 -6 6 2
15 14 17 26 13 15 -4z m-70 -36 c-11 -8 -31 -25 -44 -37 -14 -13 -21 -17 -17
-10 10 17 2 15 -34 -6 -16 -10 -27 -22 -23 -26 4 -4 -1 -4 -11 0 -15 6 -17 4
-11 -6 6 -10 4 -12 -8 -7 -9 3 -19 2 -22 -3 -4 -6 -11 -10 -18 -10 -21 0 10
22 100 72 85 46 129 62 88 33z m315 -120 c0 -8 -4 -15 -10 -15 -5 0 -10 7 -10
15 0 8 5 15 10 15 6 0 10 -7 10 -15z m-53 -81 c-3 -3 -12 -4 -19 -1 -8 3 -5 6
6 6 11 1 17 -2 13 -5z m47 -9 c-4 -9 -19 -15 -38 -15 l-31 1 30 14 c40 18 45
18 39 0z m55 -344 c10 -7 11 -15 3 -37 l-10 -29 -1 28 c-1 15 -5 27 -11 27 -5
0 -10 5 -10 10 0 12 10 13 29 1z m22 -94 c1 -26 -1 -50 -4 -54 -4 -3 -7 20 -7
52 0 69 9 70 11 2z m-392 14 c-13 -10 -35 -21 -49 -25 -18 -5 -14 0 15 18 47
30 69 35 34 7z m326 -21 c3 -5 1 -10 -4 -10 -6 0 -11 5 -11 10 0 6 2 10 4 10
3 0 8 -4 11 -10z m-405 -19 c0 -5 -7 -12 -16 -15 -24 -9 -28 -7 -14 9 14 17
30 20 30 6z m447 -23 c-3 -7 -5 -2 -5 12 0 14 2 19 5 13 2 -7 2 -19 0 -25z"/>
<path d="M3418 3253 c-21 -5 -24 -23 -5 -24 6 0 37 -2 67 -3 30 -1 133 -6 228
-11 115 -5 172 -5 172 2 0 17 -409 48 -462 36z"/>
<path d="M3613 3020 c-8 -22 -8 -32 1 -40 16 -13 26 -3 26 27 0 24 25 32 33
11 3 -7 4 -3 4 10 -1 17 -7 22 -27 22 -19 0 -28 -7 -37 -30z"/>
<path d="M3710 3020 c13 -8 12 -10 -4 -10 -16 0 -17 -2 -5 -16 8 -10 15 -12
17 -5 5 15 39 14 45 -1 3 -8 6 -6 6 5 1 11 -6 17 -19 17 -11 0 -20 5 -20 10 0
6 -8 10 -17 10 -15 0 -16 -2 -3 -10z"/>
<path d="M3692 2917 c-8 -10 -5 -13 16 -15 15 -1 23 2 17 6 -5 4 -13 11 -16
15 -3 4 -11 2 -17 -6z"/>
<path d="M1450 2450 c0 -5 7 -10 16 -10 8 0 12 5 9 10 -3 6 -10 10 -16 10 -5
0 -9 -4 -9 -10z"/>
<path d="M2635 4731 c-3 -6 -10 -9 -15 -6 -5 3 -12 0 -16 -6 -4 -8 -3 -9 4 -5
7 4 12 2 12 -3 0 -6 9 -11 19 -11 11 0 18 6 17 15 -3 21 -13 28 -21 16z"/>
<path d="M2549 4678 c-5 -18 -6 -38 -1 -34 7 8 12 36 6 36 -2 0 -4 -1 -5 -2z"/>
<path d="M2668 4633 c7 -3 16 -2 19 1 4 3 -2 6 -13 5 -11 0 -14 -3 -6 -6z"/>
<path d="M2268 4513 c6 -2 18 -2 25 0 6 3 1 5 -13 5 -14 0 -19 -2 -12 -5z"/>
<path d="M2223 4494 c-17 -14 -17 -14 1 -7 11 4 17 2 13 -3 -9 -16 34 -14 57
2 11 7 15 14 9 14 -7 0 -15 -4 -18 -10 -3 -5 -14 -10 -23 -10 -13 0 -14 2 -4
9 11 7 11 9 -1 14 -8 3 -23 -1 -34 -9z"/>
<path d="M2150 4451 c0 -6 -11 -22 -25 -37 -18 -19 -25 -22 -25 -11 0 8 6 17
13 20 6 3 2 4 -11 4 -15 -1 -21 -6 -17 -16 5 -11 3 -12 -10 -1 -13 11 -14 10
-9 -5 6 -15 4 -16 -14 -6 -21 11 -36 3 -24 -14 4 -6 16 -15 27 -21 21 -12 34
-54 16 -54 -6 0 -11 -9 -11 -20 0 -11 3 -20 8 -20 4 0 13 9 20 20 7 11 21 20
31 20 15 0 19 -6 18 -27 -2 -26 1 -28 33 -28 26 0 36 5 38 19 3 16 0 18 -22
12 -19 -5 -26 -3 -26 9 0 8 5 15 11 15 8 0 8 4 0 13 -6 8 -12 41 -13 75 -2 34
-4 62 -5 62 -2 0 -3 -4 -3 -9z m0 -49 c0 -5 -7 -9 -15 -9 -8 0 -12 4 -9 9 3 4
9 8 15 8 5 0 9 -4 9 -8z"/>
<path d="M2620 4440 c0 -5 5 -10 10 -10 6 0 10 5 10 10 0 6 -4 10 -10 10 -5 0
-10 -4 -10 -10z"/>
<path d="M2551 4358 c0 -28 2 -30 9 -13 12 28 12 45 0 45 -5 0 -10 -15 -9 -32z"/>
<path d="M1964 4358 c-3 -5 -2 -13 2 -20 5 -7 11 -5 21 7 11 16 13 17 13 2 0
-9 -8 -21 -17 -26 -10 -6 -13 -11 -6 -11 6 0 15 5 18 10 5 8 11 7 21 0 7 -7
19 -10 26 -7 8 3 6 6 -5 6 -10 1 -16 5 -13 10 12 18 -6 41 -31 39 -13 -2 -27
-6 -29 -10z"/>
<path d="M1907 4319 c7 -7 15 -10 18 -7 3 3 -2 9 -12 12 -14 6 -15 5 -6 -5z"/>
<path d="M2711 4314 c0 -11 3 -14 6 -6 3 7 2 16 -1 19 -3 4 -6 -2 -5 -13z"/>
<path d="M1830 4310 c-9 -6 -10 -10 -3 -10 6 0 15 5 18 10 8 12 4 12 -15 0z"/>
<path d="M1865 4290 c-3 -5 1 -10 9 -10 9 0 16 5 16 10 0 6 -4 10 -9 10 -6 0
-13 -4 -16 -10z"/>
<path d="M1825 4280 c-4 -6 -11 -7 -17 -4 -7 4 -8 2 -4 -4 10 -16 23 -15 30 3
6 17 0 20 -9 5z"/>
<path d="M1740 4260 c-9 -6 -10 -10 -3 -10 6 0 15 5 18 10 8 12 4 12 -15 0z"/>
<path d="M1774 4259 c-4 -6 -1 -15 6 -19 8 -5 0 -8 -20 -7 -24 2 -36 -4 -48
-22 -16 -23 -16 -24 3 -14 31 16 125 27 125 14 0 -6 7 -8 16 -4 9 3 11 8 6 12
-6 3 -10 13 -9 21 1 8 -2 16 -8 18 -5 1 -10 -2 -10 -7 0 -5 -4 -13 -9 -18 -5
-4 -6 -3 -3 3 9 15 -40 37 -49 23z"/>
<path d="M1988 4263 c-19 -5 -25 -23 -8 -23 5 0 7 -7 4 -15 -4 -8 -1 -15 5
-15 6 0 11 5 11 11 0 6 7 9 15 5 23 -8 45 4 45 25 0 19 -28 24 -72 12z"/>
<path d="M2083 4239 c4 -13 7 -30 7 -36 0 -7 4 -13 9 -13 14 0 7 63 -8 68 -10
3 -12 -1 -8 -19z"/>
<path d="M2872 4240 c0 -14 2 -19 5 -12 2 6 2 18 0 25 -3 6 -5 1 -5 -13z"/>
<path d="M1690 4235 c-14 -8 -20 -14 -14 -15 5 0 19 7 30 15 24 18 16 19 -16
0z"/>
<path d="M1880 4240 c0 -5 5 -10 10 -10 6 0 10 5 10 10 0 6 -4 10 -10 10 -5 0
-10 -4 -10 -10z"/>
<path d="M1888 4213 c7 -3 16 -2 19 1 4 3 -2 6 -13 5 -11 0 -14 -3 -6 -6z"/>
<path d="M1608 4194 c-16 -8 -28 -17 -28 -19 0 -10 16 -4 40 15 30 23 25 25
-12 4z"/>
<path d="M2288 4203 c7 -3 16 -2 19 1 4 3 -2 6 -13 5 -11 0 -14 -3 -6 -6z"/>
<path d="M2130 4190 c0 -5 7 -10 16 -10 8 0 12 5 9 10 -3 6 -10 10 -16 10 -5
0 -9 -4 -9 -10z"/>
<path d="M3195 3819 c-11 -16 -1 -19 13 -3 7 8 8 14 3 14 -5 0 -13 -5 -16 -11z"/>
<path d="M4000 3820 c-9 -6 -10 -10 -3 -10 6 0 15 5 18 10 8 12 4 12 -15 0z"/>
<path d="M3163 3793 c22 -6 13 -22 -11 -18 -9 1 -11 0 -4 -2 6 -3 12 -9 12
-14 0 -6 7 -3 16 5 18 18 10 37 -14 35 -15 -1 -15 -2 1 -6z"/>
<path d="M2991 3700 c-13 -11 -19 -20 -14 -20 6 0 20 9 33 20 30 26 12 26 -19
0z"/>
<path d="M3026 3692 c-3 -5 1 -9 9 -9 8 0 12 4 9 9 -3 4 -7 8 -9 8 -2 0 -6 -4
-9 -8z"/>
<path d="M2901 3591 c-9 -6 -10 -11 -2 -15 6 -4 18 0 27 8 12 12 12 16 2 16
-7 0 -19 -4 -27 -9z"/>
<path d="M3025 3580 c3 -5 8 -10 11 -10 2 0 4 5 4 10 0 6 -5 10 -11 10 -5 0
-7 -4 -4 -10z"/>
<path d="M2841 3553 c0 -11 3 -13 6 -5 2 6 9 10 13 7 5 -3 11 -1 15 5 3 5 -3
10 -14 10 -14 0 -21 -6 -20 -17z"/>
<path d="M2914 3500 c-4 -16 -10 -30 -14 -30 -4 0 -10 -11 -12 -25 -6 -28 18
-36 29 -9 4 12 7 13 14 3 4 -8 11 -10 16 -6 4 4 2 17 -5 27 -15 24 -16 50 -2
50 6 0 10 -8 10 -17 0 -15 2 -15 9 -4 7 10 4 19 -7 28 -25 19 -32 16 -38 -17z"/>
<path d="M3040 3454 c0 -8 5 -12 10 -9 6 4 8 11 5 16 -9 14 -15 11 -15 -7z"/>
<path d="M2960 3441 c0 -12 39 -25 47 -17 4 3 -1 6 -10 6 -9 0 -17 5 -17 10 0
6 -4 10 -10 10 -5 0 -10 -4 -10 -9z"/>
<path d="M3026 3393 c-11 -11 -6 -23 9 -23 8 0 15 4 15 9 0 13 -16 22 -24 14z"/>
<path d="M3080 3380 c0 -5 7 -10 16 -10 8 0 12 5 9 10 -3 6 -10 10 -16 10 -5
0 -9 -4 -9 -10z"/>
<path d="M3128 3359 c-10 -10 -15 -19 -12 -19 13 0 44 21 44 30 0 15 -13 11
-32 -11z"/>
<path d="M3053 3315 c0 -8 4 -12 9 -9 4 3 8 9 8 15 0 5 -4 9 -8 9 -5 0 -9 -7
-9 -15z"/>
<path d="M4422 2767 c8 -16 13 -207 18 -672 3 -358 10 -656 14 -663 4 -7 3
-12 -1 -12 -5 0 -9 -11 -9 -25 0 -28 13 -34 22 -10 4 8 11 12 17 8 6 -3 7 -1
3 6 -4 6 -11 9 -16 6 -5 -3 -9 140 -10 317 -1 178 -3 454 -5 613 -3 160 -5
324 -5 366 0 68 -2 77 -20 82 -17 4 -18 3 -8 -16z"/>
<path d="M2334 2638 c-4 -6 -3 -8 4 -4 6 3 18 -1 26 -10 9 -8 16 -11 16 -5 0
17 -38 33 -46 19z"/>
<path d="M2255 2600 c-16 -10 -37 -19 -46 -19 -9 -1 -20 -8 -23 -17 -5 -13 0
-15 36 -9 55 9 67 17 42 26 -18 7 -18 8 2 8 12 1 25 -7 28 -16 5 -13 9 -14 19
-4 9 10 8 15 -6 26 -18 13 -18 13 0 18 16 4 16 5 -2 5 -11 0 -33 -8 -50 -18z"/>
<path d="M2998 2233 c7 -3 16 -2 19 1 4 3 -2 6 -13 5 -11 0 -14 -3 -6 -6z"/>
<path d="M1166 1542 c-2 -4 4 -13 15 -20 16 -11 19 -9 19 8 0 19 -24 28 -34
12z"/>
<path d="M1141 1223 c0 -7 -4 -12 -8 -11 -15 4 -53 -14 -53 -24 0 -6 -3 -8 -7
-5 -3 4 -12 -1 -20 -11 -9 -10 -11 -11 -7 -2 7 13 5 13 -9 1 -9 -7 -17 -17
-17 -21 0 -4 30 -26 68 -49 37 -23 82 -53 100 -68 17 -14 32 -20 32 -14 0 6
-4 11 -8 11 -5 0 -19 9 -32 20 -20 17 -20 24 1 22 15 -2 3 31 -13 36 -26 7
-24 57 4 76 12 9 17 16 10 16 -8 0 -10 5 -6 13 6 9 4 9 -8 -1 -14 -11 -17 -10
-21 5 -3 10 -5 12 -6 6z"/>
<path d="M1409 1153 c0 -4 0 -54 -1 -110 0 -66 -4 -103 -11 -103 -6 0 -8 -3
-5 -6 4 -3 19 1 35 10 15 8 22 15 14 16 -10 0 -12 20 -10 97 3 71 1 97 -8 100
-7 3 -13 1 -14 -4z"/>
<path d="M3538 1094 c-3 -42 -6 -49 -28 -54 -21 -5 -22 -7 -7 -13 20 -8 23
-37 3 -37 -8 0 -17 -7 -20 -16 -9 -24 -7 -74 3 -74 5 0 7 9 4 21 -4 12 0 25 8
29 17 11 32 2 22 -13 -12 -19 -14 -47 -3 -47 5 0 7 -7 4 -15 -3 -8 -9 -14 -12
-13 -20 2 -32 -4 -42 -22 -10 -19 -10 -20 9 -8 12 7 21 16 21 21 0 4 3 6 8 3
4 -2 18 2 32 10 14 7 21 13 15 14 -6 0 -8 44 -5 122 3 68 2 127 -2 132 -4 5
-8 -13 -10 -40z m2 -194 c0 -5 -2 -10 -4 -10 -3 0 -8 5 -11 10 -3 6 -1 10 4
10 6 0 11 -4 11 -10z"/>
<path d="M1720 1120 c-9 -6 -10 -10 -3 -10 6 0 15 5 18 10 8 12 4 12 -15 0z"/>
<path d="M3521 1094 c0 -11 3 -14 6 -6 3 7 2 16 -1 19 -3 4 -6 -2 -5 -13z"/>
<path d="M1656 1088 c5 -8 2 -9 -10 -5 -9 4 -15 3 -12 -2 10 -15 -46 -24 -56
-9 -8 10 -9 9 -5 -4 3 -9 3 -19 0 -22 -9 -8 -35 23 -28 34 3 5 -1 10 -9 10
-10 0 -13 -6 -10 -15 4 -8 1 -15 -5 -15 -6 0 -11 -12 -11 -26 0 -17 4 -23 13
-19 6 4 1 -3 -13 -15 -18 -15 -7 -12 35 11 33 18 62 35 65 38 3 3 20 13 39 22
28 12 31 17 17 22 -11 5 -15 3 -10 -5z"/>
<path d="M3300 1090 c0 -5 5 -10 11 -10 5 0 7 5 4 10 -3 6 -8 10 -11 10 -2 0
-4 -4 -4 -10z"/>
<path d="M2067 1046 c-4 -10 -1 -13 8 -9 8 3 12 9 9 14 -7 12 -11 11 -17 -5z"/>
<path d="M2140 1050 c-9 -6 -10 -10 -3 -10 6 0 15 5 18 10 8 12 4 12 -15 0z"/>
<path d="M1250 988 c12 -10 27 -18 34 -18 6 1 1 6 -12 13 -12 7 -20 15 -17 18
3 3 -2 6 -12 6 -13 0 -11 -4 7 -19z"/>
<path d="M1974 995 c2 -7 0 -18 -5 -26 -6 -10 -9 -10 -9 -1 0 17 -25 15 -40
-3 -7 -8 -17 -12 -23 -8 -6 3 -7 1 -3 -6 4 -6 12 -9 17 -6 5 4 9 0 9 -7 0 -10
2 -10 9 0 4 8 11 13 15 13 24 -3 36 1 36 14 0 8 4 15 8 15 5 0 9 6 9 13 0 8
-7 14 -14 14 -8 0 -12 -6 -9 -12z m-24 -29 c0 -2 -7 -7 -16 -10 -8 -3 -12 -2
-9 4 6 10 25 14 25 6z"/>
<path d="M1456 981 c-4 -5 -2 -12 3 -15 5 -4 12 -2 15 3 4 5 2 12 -3 15 -5 4
-12 2 -15 -3z"/>
<path d="M2005 970 c-8 -13 15 -13 35 0 12 8 11 10 -7 10 -12 0 -25 -4 -28
-10z"/>
<path d="M2150 965 c0 -8 4 -15 10 -15 5 0 7 7 4 15 -4 8 -8 15 -10 15 -2 0
-4 -7 -4 -15z"/>
<path d="M1300 954 c0 -12 43 -34 66 -34 8 0 12 5 9 11 -4 6 -13 8 -21 5 -9
-3 -11 0 -7 12 6 14 4 15 -8 5 -12 -10 -18 -10 -27 -1 -8 8 -12 8 -12 2z"/>
<path d="M1861 936 c-11 -14 -11 -16 3 -16 21 0 21 -16 0 -24 -9 -4 -24 0 -34
9 -9 8 -21 15 -26 15 -5 0 -2 -5 6 -11 12 -9 11 -10 -7 -6 -12 3 -24 -1 -27
-8 -4 -10 2 -11 25 -5 21 6 29 5 29 -4 0 -19 45 -11 68 12 20 20 19 24 -5 21
-4 0 -10 7 -13 16 -5 15 -7 16 -19 1z"/>
<path d="M2000 940 c0 -5 5 -10 10 -10 6 0 10 5 10 10 0 6 -4 10 -10 10 -5 0
-10 -4 -10 -10z"/>
<path d="M2416 921 c-4 -5 3 -7 14 -4 23 6 26 13 6 13 -8 0 -17 -4 -20 -9z"/>
<path d="M3480 879 c0 -5 5 -7 10 -4 6 3 10 8 10 11 0 2 -4 4 -10 4 -5 0 -10
-5 -10 -11z"/>
<path d="M1948 873 c6 -2 18 -2 25 0 6 3 1 5 -13 5 -14 0 -19 -2 -12 -5z"/>
<path d="M1705 849 c-9 -14 -2 -20 14 -10 8 6 9 11 3 15 -6 3 -14 1 -17 -5z"/>
<path d="M1740 849 c0 -5 5 -7 10 -4 6 3 10 3 10 -2 0 -4 -14 -14 -32 -22 -27
-12 -32 -12 -43 2 -9 12 -15 13 -23 5 -8 -8 -6 -16 10 -29 16 -15 18 -22 9
-33 -7 -8 -21 -12 -33 -8 -16 4 -19 2 -13 -8 5 -9 4 -11 -4 -6 -9 6 -9 11 0
22 8 10 15 11 24 4 23 -19 25 6 2 27 -28 25 -52 40 -44 26 9 -15 -29 -46 -48
-39 -29 11 -4 -14 48 -48 29 -18 78 -52 109 -75 34 -25 55 -35 51 -25 -5 14 1
16 48 13 129 -7 529 2 529 11 0 6 -6 10 -13 10 -7 0 -33 18 -57 40 l-45 39
-105 2 c-58 0 -163 0 -235 0 -71 -1 -137 3 -144 8 -10 7 -1 8 29 4 31 -4 41
-3 36 5 -4 7 -16 12 -26 12 -10 0 -25 3 -34 6 -25 10 5 32 53 40 47 8 53 19
14 28 -17 5 -29 3 -34 -6 -7 -10 -11 -10 -21 0 -15 15 -28 16 -28 1z"/>
<path d="M3430 820 c0 -5 5 -10 11 -10 5 0 7 5 4 10 -3 6 -8 10 -11 10 -2 0
-4 -4 -4 -10z"/>
<path d="M2265 810 c-3 -5 -1 -10 4 -10 6 0 11 5 11 10 0 6 -2 10 -4 10 -3 0
-8 -4 -11 -10z"/>
<path d="M2058 783 c7 -3 16 -2 19 1 4 3 -2 6 -13 5 -11 0 -14 -3 -6 -6z"/>
<path d="M1938 773 c12 -2 32 -2 45 0 12 2 2 4 -23 4 -25 0 -35 -2 -22 -4z"/>
<path d="M1814 597 c69 -53 301 -204 306 -200 3 3 -1 8 -8 10 -6 3 -10 9 -6
14 3 5 -1 9 -8 10 -7 0 -4 5 7 10 17 8 16 9 -7 6 -16 -3 -25 0 -21 6 3 5 -3 6
-16 2 -12 -4 -21 -2 -21 4 0 13 88 10 109 -4 10 -5 12 -4 7 3 -5 9 43 12 188
12 l196 0 0 -74 c0 -46 -5 -78 -11 -82 -9 -5 -10 1 -5 22 5 21 4 25 -4 14 -5
-8 -10 -23 -10 -32 0 -9 -5 -20 -10 -23 -6 -4 -9 -2 -8 3 2 6 0 10 -4 11 -5 1
-8 -2 -7 -6 1 -10 -30 -25 -41 -18 -6 3 -7 -1 -4 -10 5 -11 2 -14 -12 -9 -16
5 -16 4 -4 -5 12 -9 11 -11 -8 -11 -15 0 -21 -4 -16 -11 4 -7 1 -10 -7 -7 -9
3 -13 15 -11 31 2 16 -1 27 -8 27 -7 0 -9 -7 -6 -16 5 -14 4 -15 -9 -4 -9 8
-15 8 -15 2 0 -6 5 -14 10 -17 6 -3 10 -10 10 -15 0 -6 -9 -2 -19 7 -11 9 -18
20 -15 25 3 4 -3 5 -12 1 -11 -4 -15 -2 -11 4 4 6 0 16 -8 23 -12 10 -15 10
-15 -1 0 -8 -8 -4 -20 9 -12 12 -27 22 -35 22 -8 0 -17 5 -21 11 -4 7 0 9 13
5 15 -5 19 -1 19 19 0 15 -4 21 -9 16 -6 -6 -19 -6 -35 0 -14 5 -31 8 -38 5
-8 -3 -11 2 -9 14 2 10 -3 21 -12 24 -11 5 -14 2 -9 -10 3 -8 6 -19 6 -23 0
-4 37 -34 83 -66 45 -32 93 -68 107 -80 31 -27 66 -29 99 -6 14 10 63 37 108
62 45 24 79 48 76 53 -3 5 -1 6 6 2 6 -4 37 8 69 27 31 19 132 76 225 126 92
51 167 98 166 104 0 9 -2 9 -5 0 -4 -8 -14 -9 -34 -3 -21 6 -32 4 -41 -6 -7
-9 -16 -11 -23 -5 -6 5 -263 12 -596 15 l-585 5 29 -22z m371 -227 c4 -6 11
-7 17 -4 7 4 8 2 4 -5 -6 -9 -12 -9 -24 1 -10 7 -19 14 -21 15 -2 2 1 3 7 3 6
0 14 -5 17 -10z"/>
<path d="M2143 432 c10 -10 14 -22 10 -25 -3 -4 -1 -7 5 -7 17 0 15 16 -4 34
-22 22 -31 20 -11 -2z"/>
<path d="M2328 383 c7 -3 16 -2 19 1 4 3 -2 6 -13 5 -11 0 -14 -3 -6 -6z"/>
<path d="M2492 360 c0 -14 2 -19 5 -12 2 6 2 18 0 25 -3 6 -5 1 -5 -13z"/>
<path d="M2340 300 c-9 -6 -10 -10 -3 -10 6 0 15 5 18 10 8 12 4 12 -15 0z"/>
<path d="M2380 300 c0 -3 5 -12 10 -20 7 -11 10 -11 10 -2 0 7 4 11 8 8 5 -3
9 0 9 7 0 7 -9 13 -19 13 -10 0 -18 -3 -18 -6z"/>
</g>
</svg>
